<?xml version="1.0" encoding="utf-8"?>
<!-- Generator: Adobe Illustrator 23.0.1, SVG Export Plug-In . SVG Version: 6.00 Build 0)  -->
<svg version="1.1" id="Layer_1" xmlns="http://www.w3.org/2000/svg" xmlns:xlink="http://www.w3.org/1999/xlink" x="0px" y="0px"
	 viewBox="0 0 640 480" style="enable-background:new 0 0 640 480; background-color: black;" xml:space="preserve">
<style type="text/css">
	.st0{fill:none;stroke:#FFF;stroke-width:1.625;stroke-miterlimit:10;}
	.st1{fill:none;stroke:#FFF;stroke-width:1.625;stroke-linecap:square;stroke-miterlimit:10;}
	.st2{fill:none;stroke:#FFF;stroke-width:1.652;stroke-linecap:round;stroke-linejoin:round;stroke-miterlimit:10;}
	.st3{fill:none;stroke:#00ACFF;stroke-width:1.652;stroke-linejoin:round;stroke-miterlimit:10;}
	.st4{fill:none;stroke:#00BC7F;stroke-width:1.652;stroke-linejoin:round;stroke-miterlimit:10;}
	.st5{fill:none;stroke:#5F43E9;stroke-width:1.652;stroke-linejoin:round;stroke-miterlimit:10;}
	.st6{fill:none;stroke:#F856B4;stroke-width:1.652;stroke-linejoin:round;stroke-miterlimit:10;}

  .dashed-line  {
  stroke-dasharray: 5;
}

@keyframes dash-animation {
  to {
    stroke-dashoffset: 1000;
  }
}

@keyframes dash-animation-opposite {
  to {
    stroke-dashoffset: -1000;
  }
}

.dash-move {
  animation: dash-animation 20s infinite linear;
}

.dash-move-opposite {
  animation: dash-animation-opposite 20s infinite linear;
}

</style>
<g>
	<path class="st0" d="M348.84,190.94c1.9,1.9,3.08,4.53,3.08,7.43c0,2.9-1.18,5.53-3.08,7.44"/>
	<path class="st0" d="M345.31,194.47c0.99,1,1.61,2.38,1.61,3.9c0,1.52-0.62,2.9-1.61,3.9"/>
	<rect x="292" y="216.71" class="st1" width="55.08" height="22.42"/>
	<path class="st0" d="M332.69,190.94c-1.9,1.9-3.08,4.53-3.08,7.43c0,2.9,1.18,5.53,3.08,7.44"/>
	<path class="st0" d="M336.23,194.47c-0.99,1-1.61,2.38-1.61,3.9c0,1.52,0.62,2.9,1.61,3.9"/>
	<line class="st1" x1="340.74" y1="215.72" x2="340.74" y2="198.37"/>
	<line class="st0" x1="296.24" y1="239.91" x2="296.24" y2="242.11"/>
	<line class="st0" x1="342.85" y1="239.91" x2="342.85" y2="242.11"/>
	<line class="st0" x1="292" y1="232.55" x2="343.96" y2="232.55"/>
	<g>
		<line class="st0" x1="307.66" y1="220.92" x2="311.3" y2="220.92"/>
		<line class="st0" x1="314.36" y1="220.92" x2="318.01" y2="220.92"/>
		<line class="st0" x1="321.07" y1="220.92" x2="324.72" y2="220.92"/>
		<line class="st0" x1="327.78" y1="220.92" x2="331.43" y2="220.92"/>
	</g>
</g>
<g id="_x37_">
	<path class="st2" d="M320.22,383.2c0,0.41-0.33,0.74-0.74,0.74c-0.41,0-0.74-0.33-0.74-0.74s0.33-0.74,0.74-0.74
		C319.89,382.47,320.22,382.8,320.22,383.2z"/>
	<path class="st2" d="M331.29,388.41h-23.62c-2.09,0-3.79-1.69-3.79-3.79v-47.86c0-2.09,1.69-3.79,3.79-3.79h23.62
		c2.09,0,3.79,1.69,3.79,3.79v47.86C335.08,386.71,333.38,388.41,331.29,388.41z"/>
	<line class="st2" x1="315.87" y1="337.85" x2="322.65" y2="337.85"/>
	<line class="st2" x1="304.21" y1="378.61" x2="334.76" y2="378.61"/>
</g>
<g id="_x31_3">
	<path class="st2" d="M44.12,346.88c1.98-1.71,3.4-7.64,3.97-10.97c0.17-0.99,1.03-1.72,2.04-1.72h11.7c1.01,0,1.87,0.73,2.04,1.72
		c0.55,3.28,1.94,9.05,4.03,11.01"/>
	<path class="st2" d="M44.07,373.6c2.09,1.95,3.48,7.72,4.03,11.01c0.17,1,1.03,1.72,2.04,1.72h11.7c1.01,0,1.87-0.73,2.04-1.72
		c0.57-3.33,1.99-9.26,3.97-10.97"/>
	<path class="st2" d="M65.21,374.54H46.76c-2.63,0-4.76-2.13-4.76-4.76v-19.05c0-2.63,2.13-4.76,4.76-4.76h18.45
		c2.63,0,4.76,2.13,4.76,4.76v19.05C69.97,372.41,67.84,374.54,65.21,374.54z"/>
	<line class="st2" x1="49.13" y1="351.22" x2="47.26" y2="353.09"/>
	<line class="st2" x1="52.99" y1="351.79" x2="47.83" y2="356.95"/>
</g>
<g>
	<rect x="305.54" y="60.47" class="st0" width="28.7" height="50.85"/>
	<line class="st0" x1="310.28" y1="66.96" x2="329.5" y2="66.96"/>
	<line class="st0" x1="310.28" y1="72.32" x2="329.5" y2="72.32"/>
	<line class="st0" x1="310.28" y1="77.68" x2="329.5" y2="77.68"/>
	<circle class="st0" cx="319.89" cy="96.03" r="3"/>
	<line class="st0" x1="326.62" y1="96.03" x2="329.5" y2="96.03"/>
	<line class="st0" x1="307.96" y1="111.32" x2="307.96" y2="114.32"/>
	<line class="st0" x1="331.82" y1="111.32" x2="331.82" y2="114.32"/>
</g>
<g id="_x31_0">
	<line class="st2 " x1="552.26" y1="344.37" x2="549.82" y2="346.81"/>
	<line class="st2" x1="557.29" y1="345.11" x2="550.56" y2="351.84"/>
	<path class="st2" d="M596.69,373.37h-53.57V340.9c0-1.76,1.42-3.18,3.18-3.18h47.21c1.76,0,3.18,1.42,3.18,3.18V373.37z"/>
	<path class="st2" d="M596.97,378.64h-54.14c-3.17,0-6.14-1.98-7.9-5.28l0,0h69.94l0,0C603.11,376.66,600.15,378.64,596.97,378.64z"
		/>
</g>
<line class="st3 dashed-line dash-move-opposite" x1="81" y1="361" x2="292" y2="361"/>
<line class="st4 dashed-line dash-move-opposite" x1="81" y1="333" x2="319" y2="253"/>
<line class="st4 dashed-line dash-move-opposite" x1="319" y1="326" x2="319" y2="253"/>
<line class="st4 dashed-line dash-move-opposite" x1="535" y1="326" x2="319" y2="253"/>
<line class="st3 dashed-line dash-move" x1="341" y1="361" x2="535" y2="361"/>
<line class="st5 dashed-line dash-move" x1="320" y1="194" x2="320" y2="121"/>
<g>
	<rect x="107.54" y="58.47" class="st0" width="28.7" height="50.85"/>
	<line class="st0" x1="112.28" y1="64.96" x2="131.5" y2="64.96"/>
	<line class="st0" x1="112.28" y1="70.32" x2="131.5" y2="70.32"/>
	<line class="st0" x1="112.28" y1="75.68" x2="131.5" y2="75.68"/>
	<circle class="st0" cx="121.89" cy="94.03" r="3"/>
	<line class="st0" x1="128.62" y1="94.03" x2="131.5" y2="94.03"/>
	<line class="st0" x1="109.96" y1="109.32" x2="109.96" y2="112.32"/>
	<line class="st0" x1="133.82" y1="109.32" x2="133.82" y2="112.32"/>
</g>
<g>
	<rect x="503.54" y="58.47" class="st0" width="28.7" height="50.85"/>
	<line class="st0" x1="508.28" y1="64.96" x2="527.5" y2="64.96"/>
	<line class="st0" x1="508.28" y1="70.32" x2="527.5" y2="70.32"/>
	<line class="st0" x1="508.28" y1="75.68" x2="527.5" y2="75.68"/>
	<circle class="st0" cx="517.89" cy="94.03" r="3"/>
	<line class="st0" x1="524.62" y1="94.03" x2="527.5" y2="94.03"/>
	<line class="st0" x1="505.96" y1="109.32" x2="505.96" y2="112.32"/>
	<line class="st0" x1="529.82" y1="109.32" x2="529.82" y2="112.32"/>
</g>
<line class="st6 dashed-line dash-move" x1="144" y1="84" x2="296" y2="84"/>
<line class="st6 dashed-line dash-move-opposite" x1="343" y1="84" x2="495" y2="84"/>
</svg>






