<svg width="230" height="29" viewBox="0 0 230 29" fill="none" xmlns="http://www.w3.org/2000/svg">
<path d="M21.88 9.96C21.88 11.5867 21.5067 13.08 20.76 14.44C20.0133 15.7733 18.8667 16.8533 17.32 17.68C15.7733 18.5067 13.8533 18.92 11.56 18.92H7.32V29H0.48V0.919999H11.56C13.8 0.919999 15.6933 1.30667 17.24 2.08C18.7867 2.85333 19.9467 3.92 20.72 5.28C21.4933 6.64 21.88 8.2 21.88 9.96ZM11.04 13.48C12.3467 13.48 13.32 13.1733 13.96 12.56C14.6 11.9467 14.92 11.08 14.92 9.96C14.92 8.84 14.6 7.97333 13.96 7.36C13.32 6.74667 12.3467 6.44 11.04 6.44H7.32V13.48H11.04ZM35.4809 0.919999V29H28.6409V0.919999H35.4809ZM60.8378 29L55.1178 20.4L50.0778 29H42.3178L51.3178 14.72L42.1178 0.919999H50.0778L55.7178 9.4L60.6778 0.919999H68.4378L59.5178 15.08L68.7978 29H60.8378ZM82.2716 6.4V12.08H91.4316V17.36H82.2716V23.52H92.6316V29H75.4316V0.919999H92.6316V6.4H82.2716ZM107.112 23.72H116.072V29H100.272V0.919999H107.112V23.72ZM129.375 6.4V12.08H138.535V17.36H129.375V23.52H139.735V29H122.535V0.919999H139.735V6.4H129.375ZM157.895 0.919999C160.855 0.919999 163.442 1.50667 165.655 2.68C167.869 3.85333 169.575 5.50667 170.775 7.64C172.002 9.74667 172.615 12.1867 172.615 14.96C172.615 17.7067 172.002 20.1467 170.775 22.28C169.575 24.4133 167.855 26.0667 165.615 27.24C163.402 28.4133 160.829 29 157.895 29H147.375V0.919999H157.895ZM157.455 23.08C160.042 23.08 162.055 22.3733 163.495 20.96C164.935 19.5467 165.655 17.5467 165.655 14.96C165.655 12.3733 164.935 10.36 163.495 8.92C162.055 7.48 160.042 6.76 157.455 6.76H154.215V23.08H157.455ZM186.478 6.4V12.08H195.638V17.36H186.478V23.52H196.838V29H179.638V0.919999H196.838V6.4H186.478ZM229.598 29H222.758L211.318 11.68V29H204.478V0.919999H211.318L222.758 18.32V0.919999H229.598V29Z" fill="#486543"/>
</svg>
