<svg xmlns="http://www.w3.org/2000/svg" viewBox="0 0 670 288" width="670" height="288" style="width: 100%; height: 100%; transform: translate3d(0px, 0px, 0px);" preserveAspectRatio="xMidYMid meet"><defs><clipPath id="__lottie_element_22"><rect width="670" height="288" x="0" y="0"></rect></clipPath></defs><g clip-path="url(#__lottie_element_22)"><g style="display: block;" fill="rgb(0,0,0)" font-size="287" font-family="JetBrains Mono" font-style="normal" font-weight="500" aria-label="Src:" transform="matrix(1,0,0,1,-13,239)" opacity="1"><path stroke-linecap="butt" stroke-linejoin="round" stroke-miterlimit="4" style="display: inherit;" d=" M114.51,-1.29 C122.93,-4.06 130.11,-7.94 136.04,-12.91 C141.97,-17.89 146.51,-23.92 149.67,-31 C152.83,-38.07 154.41,-46.01 154.41,-54.82 C154.41,-69.93 150.15,-82.89 141.63,-93.71 C133.12,-104.51 120.63,-112.41 104.18,-117.38 C104.18,-117.38 81.22,-124.56 81.22,-124.56 C71.84,-127.62 65.01,-131.68 60.7,-136.76 C56.4,-141.82 54.24,-148.09 54.24,-155.55 C54.24,-163.59 57.11,-170 62.85,-174.78 C68.59,-179.56 76.44,-181.96 86.39,-181.96 C95.57,-181.96 103.27,-179.42 109.49,-174.35 C115.71,-169.28 118.91,-162.44 119.1,-153.83 C119.1,-153.83 151.54,-153.83 151.54,-153.83 C151.34,-162.44 149.57,-170.19 146.23,-177.08 C142.88,-183.97 138.38,-189.8 132.74,-194.59 C127.09,-199.37 120.4,-203.05 112.65,-205.64 C104.9,-208.22 96.33,-209.51 86.96,-209.51 C66.87,-209.51 51.13,-204.49 39.75,-194.44 C28.36,-184.4 22.67,-170.67 22.67,-153.26 C22.67,-124.17 39.61,-104.28 73.47,-93.56 C73.47,-93.56 95.28,-86.39 95.28,-86.39 C104.08,-83.52 110.88,-79.21 115.66,-73.47 C120.44,-67.73 122.84,-61.03 122.84,-53.38 C122.84,-44.58 119.63,-37.64 113.22,-32.57 C106.81,-27.5 97.96,-24.97 86.67,-24.97 C76.34,-24.97 67.78,-27.55 60.99,-32.72 C54.19,-37.88 50.61,-44.96 50.22,-53.96 C50.22,-53.96 17.79,-53.96 17.79,-53.96 C17.98,-45.35 19.8,-37.5 23.25,-30.42 C26.69,-23.34 31.43,-17.36 37.45,-12.48 C43.48,-7.61 50.61,-3.83 58.83,-1.15 C67.06,1.53 76.15,2.87 86.1,2.87 C96.62,2.87 106.09,1.48 114.51,-1.29z" transform="matrix(1,0,0,1,0.0000015258789289873675,0)" opacity="1"></path><path stroke-linecap="butt" stroke-linejoin="round" stroke-miterlimit="4" style="display: inherit;" d=" M29.27,0 C29.27,0 60.84,0 60.84,0 C60.84,0 60.84,-98.44 60.84,-98.44 C60.84,-109.35 63.81,-117.96 69.74,-124.27 C75.67,-130.58 83.71,-133.74 93.85,-133.74 C104.18,-133.74 112.31,-130.63 118.24,-124.41 C124.17,-118.2 127.14,-109.54 127.14,-98.44 C127.14,-98.44 127.14,-91.27 127.14,-91.27 C127.14,-91.27 159.57,-91.27 159.57,-91.27 C159.57,-91.27 159.57,-101.6 159.57,-101.6 C159.57,-120.16 154.79,-134.65 145.22,-145.08 C135.65,-155.51 122.45,-160.72 105.62,-160.72 C93.94,-160.72 84.23,-158.09 76.49,-152.83 C68.74,-147.56 63.81,-140.15 61.7,-130.58 C61.7,-130.58 59.12,-130.58 59.12,-130.58 C59.12,-130.58 59.12,-157.85 59.12,-157.85 C59.12,-157.85 29.27,-157.85 29.27,-157.85 C29.27,-157.85 29.27,0 29.27,0z" transform="matrix(1,0,0,1,170.76499938964844,0)" opacity="1"></path><path stroke-linecap="butt" stroke-linejoin="round" stroke-miterlimit="4" style="display: inherit;" d=" M132.74,-11.77 C144.5,-21.52 151.73,-34.82 154.41,-51.66 C154.41,-51.66 122.84,-51.66 122.84,-51.66 C121.5,-43.62 117.67,-37.17 111.36,-32.29 C105.04,-27.41 97.29,-24.97 88.11,-24.97 C77.2,-24.97 68.69,-27.93 62.57,-33.87 C56.44,-39.8 53.38,-48.12 53.38,-58.83 C53.38,-58.83 53.38,-99.01 53.38,-99.01 C53.38,-109.73 56.44,-118.1 62.57,-124.13 C68.69,-130.15 77.2,-133.17 88.11,-133.17 C97.29,-133.17 105.04,-130.68 111.36,-125.71 C117.67,-120.73 121.5,-114.23 122.84,-106.19 C122.84,-106.19 154.41,-106.19 154.41,-106.19 C153.26,-114.61 150.82,-122.16 147.09,-128.86 C143.36,-135.56 138.62,-141.3 132.88,-146.08 C127.14,-150.86 120.49,-154.5 112.93,-156.99 C105.37,-159.47 97.1,-160.72 88.11,-160.72 C77.97,-160.72 68.83,-159.28 60.7,-156.41 C52.57,-153.54 45.63,-149.43 39.89,-144.07 C34.15,-138.72 29.75,-132.21 26.69,-124.56 C23.63,-116.9 22.1,-108.39 22.1,-99.01 C22.1,-99.01 22.1,-58.83 22.1,-58.83 C22.1,-49.46 23.63,-40.94 26.69,-33.29 C29.75,-25.64 34.15,-19.13 39.89,-13.78 C45.63,-8.42 52.57,-4.3 60.7,-1.43 C68.83,1.43 77.97,2.87 88.11,2.87 C106.09,2.87 120.97,-2.01 132.74,-11.77z" transform="matrix(1,0,0,1,341.5299987792969,0)" opacity="1"></path><path stroke-linecap="butt" stroke-linejoin="round" stroke-miterlimit="4" style="display: inherit;" d=" M67.88,-4.02 C72.56,0.57 78.64,2.87 86.1,2.87 C93.56,2.87 99.63,0.57 104.32,-4.02 C109.01,-8.61 111.36,-14.54 111.36,-21.81 C111.36,-29.27 109.01,-35.3 104.32,-39.89 C99.63,-44.48 93.56,-46.78 86.1,-46.78 C78.64,-46.78 72.56,-44.48 67.88,-39.89 C63.19,-35.3 60.84,-29.27 60.84,-21.81 C60.84,-14.54 63.19,-8.61 67.88,-4.02z M67.88,-117.81 C72.56,-113.32 78.64,-111.07 86.1,-111.07 C93.56,-111.07 99.63,-113.32 104.32,-117.81 C109.01,-122.31 111.36,-128.19 111.36,-135.46 C111.36,-142.93 109.01,-149 104.32,-153.69 C99.63,-158.38 93.56,-160.72 86.1,-160.72 C78.64,-160.72 72.56,-158.38 67.88,-153.69 C63.19,-149 60.84,-142.93 60.84,-135.46 C60.84,-128.19 63.19,-122.31 67.88,-117.81z" transform="matrix(1,0,0,1,512.2949829101562,0)" opacity="1"></path></g></g></svg>