<svg width="227" height="40" viewBox="0 0 227 40" fill="none" xmlns="http://www.w3.org/2000/svg">
<path d="M0.584 39V36.312L5 35.256V9.144L0.584 8.088V5.4H14.168C18.808 5.4 22.408 6.216 24.968 7.848C27.528 9.448 28.808 12.136 28.808 15.912C28.808 17.832 28.392 19.512 27.56 20.952C26.76 22.36 25.656 23.48 24.248 24.312C22.84 25.112 21.288 25.72 19.592 26.136C17.896 26.52 16.056 26.712 14.072 26.712H12.824V35.256L18.68 36.312V39H0.584ZM12.824 23.208H13.832C15.784 23.208 17.432 22.6 18.776 21.384C20.152 20.136 20.84 18.312 20.84 15.912C20.84 13.608 20.2 11.864 18.92 10.68C17.672 9.496 16.088 8.904 14.168 8.904H12.824V23.208ZM29.8437 39V36.456L33.9237 35.496V19.368H29.8437V16.824L37.5238 15H41.3158V35.496L45.3957 36.456V39H29.8437ZM33.1557 7.608C33.1557 6.36 33.5877 5.32 34.4517 4.488C35.3157 3.624 36.3717 3.192 37.6197 3.192C38.8997 3.192 39.9557 3.624 40.7878 4.488C41.6518 5.32 42.0838 6.36 42.0838 7.608C42.0838 8.888 41.6518 9.96 40.7878 10.824C39.9557 11.688 38.8997 12.12 37.6197 12.12C36.3717 12.12 35.3157 11.688 34.4517 10.824C33.5877 9.96 33.1557 8.888 33.1557 7.608ZM45.1145 39V36.456L49.2905 35.64L55.6745 28.056L49.5305 18.36L45.7385 17.544V15H60.8585V17.544L58.3625 18.024L61.4825 22.872L65.3225 18.312L62.6825 17.544V15H73.4345V17.544L69.2585 18.456L63.2105 25.608L69.6425 35.736L73.5785 36.456V39H58.0745V36.456L60.6665 36.072L57.4025 30.792L53.1785 35.784L55.7225 36.456V39H45.1145ZM73.235 26.712C73.235 22.936 74.291 19.928 76.403 17.688C78.547 15.416 81.443 14.28 85.091 14.28C88.803 14.28 91.603 15.544 93.491 18.072C95.411 20.6 96.371 23.72 96.371 27.432H80.627C80.851 29.8 81.699 31.848 83.171 33.576C84.643 35.272 86.531 36.12 88.835 36.12C90.563 36.12 92.419 35.752 94.403 35.016L95.411 37.752C92.435 39.064 89.523 39.72 86.675 39.72C82.547 39.72 79.267 38.52 76.835 36.12C74.435 33.688 73.235 30.552 73.235 26.712ZM80.627 24.456L88.739 23.928C88.739 23.16 88.691 22.456 88.595 21.816C88.499 21.144 88.227 20.344 87.779 19.416C86.979 18.072 86.035 17.4 84.947 17.4C83.667 17.4 82.611 18.056 81.779 19.368C81.299 20.168 80.979 21.048 80.819 22.008C80.659 22.968 80.595 23.784 80.627 24.456ZM96.9912 39V36.456L101.071 35.496V4.968H96.9912V2.424L104.671 0.599999H108.463V35.496L112.543 36.456V39H96.9912Z" fill="#00954D"/>
<path d="M113.384 39V36.312L117.8 35.256V9.144L113.384 8.088V5.4H138.872V15.24H136.04L134.12 9.096H125.624V20.232L134.552 19.416V24.168L125.624 23.448V35.304H134.216L137.48 28.632H140.312L138.872 39H113.384ZM142.274 27.864C142.274 23.544 143.634 20.2 146.354 17.832C149.106 15.464 152.45 14.28 156.386 14.28C157.378 14.28 158.306 14.376 159.17 14.568V4.968H155.09V2.424L162.77 0.599999H166.61V35.4H170.354V37.464C170.162 37.624 169.89 37.832 169.538 38.088C169.218 38.344 168.562 38.68 167.57 39.096C166.578 39.512 165.634 39.72 164.738 39.72C163.394 39.72 162.258 39.4 161.33 38.76C160.434 38.12 159.794 37.432 159.41 36.696C157.65 38.712 155.49 39.72 152.93 39.72C150.018 39.72 147.506 38.712 145.394 36.696C143.314 34.648 142.274 31.704 142.274 27.864ZM149.858 27.672C149.858 30.296 150.418 32.28 151.538 33.624C152.69 34.968 153.826 35.64 154.946 35.64C156.546 35.64 157.954 35.048 159.17 33.864V17.736C158.274 17.512 157.49 17.4 156.818 17.4C154.706 17.4 153.01 18.248 151.73 19.944C150.482 21.608 149.858 24.184 149.858 27.672ZM171.256 26.712C171.256 22.936 172.312 19.928 174.424 17.688C176.568 15.416 179.464 14.28 183.112 14.28C186.824 14.28 189.624 15.544 191.512 18.072C193.432 20.6 194.392 23.72 194.392 27.432H178.648C178.872 29.8 179.72 31.848 181.192 33.576C182.664 35.272 184.552 36.12 186.856 36.12C188.584 36.12 190.44 35.752 192.424 35.016L193.432 37.752C190.456 39.064 187.544 39.72 184.696 39.72C180.568 39.72 177.288 38.52 174.856 36.12C172.456 33.688 171.256 30.552 171.256 26.712ZM178.648 24.456L186.76 23.928C186.76 23.16 186.712 22.456 186.616 21.816C186.52 21.144 186.248 20.344 185.8 19.416C185 18.072 184.056 17.4 182.968 17.4C181.688 17.4 180.632 18.056 179.8 19.368C179.32 20.168 179 21.048 178.84 22.008C178.68 22.968 178.616 23.784 178.648 24.456ZM195.732 39V36.456L199.812 35.496V19.368H195.732V16.824L203.412 15H207.204V17.352C209.156 15.304 211.572 14.28 214.452 14.28C215.7 14.28 216.82 14.472 217.812 14.856C218.836 15.208 219.684 15.72 220.356 16.392C221.06 17.064 221.604 17.864 221.988 18.792C222.372 19.72 222.564 20.728 222.564 21.816V35.496L226.644 36.456V39H212.052V36.456L215.172 35.496V23.16C215.172 22.168 215.108 21.368 214.98 20.76C214.884 20.152 214.708 19.688 214.452 19.368C214.196 19.016 213.844 18.792 213.396 18.696C212.98 18.568 212.452 18.504 211.812 18.504C210.596 18.504 209.06 19.208 207.204 20.616V35.496L210.324 36.456V39H195.732Z" fill="#09A910"/>
</svg>
