<svg width="360" height="80" viewBox="0 0 360 80" fill="none" xmlns="http://www.w3.org/2000/svg">
<path d="M45.0292 72.603C5.75047 82.1847 -11.859 20.8147 32.38 9.02904C55.3956 2.89746 72.1406 31.5096 91.7641 22.9168C92.6276 22.5386 75.9956 81.0698 35.8645 62.4747C4.46449 47.9252 26.5863 75.0873 44.6492 71.8386C45.4094 71.8386 45.8689 72.3982 45.0292 72.603Z" fill="#89A74A"/>
<path d="M114.248 33.5026C115.032 32.1744 116.139 31.1186 117.569 30.3352C118.999 29.5519 120.685 29.1602 122.626 29.1602C124.908 29.1602 126.969 29.7563 128.808 30.9483C130.681 32.1403 132.146 33.8432 133.201 36.0569C134.291 38.2707 134.836 40.8591 134.836 43.8221C134.836 46.7851 134.291 49.3905 133.201 51.6383C132.146 53.852 130.681 55.5549 128.808 56.7469C126.969 57.939 124.908 58.535 122.626 58.535C120.685 58.535 118.999 58.1433 117.569 57.36C116.173 56.5767 115.066 55.5209 114.248 54.1926V71.8685H104.235V29.5179H114.248V33.5026ZM124.67 43.8221C124.67 41.9489 124.159 40.5014 123.137 39.4797C122.15 38.4239 120.924 37.896 119.459 37.896C117.995 37.896 116.752 38.4239 115.73 39.4797C114.742 40.5355 114.248 41.983 114.248 43.8221C114.248 45.6952 114.742 47.1597 115.73 48.2155C116.752 49.2713 117.995 49.7992 119.459 49.7992C120.924 49.7992 122.15 49.2713 123.137 48.2155C124.159 47.1257 124.67 45.6612 124.67 43.8221ZM143.505 26.8614C141.734 26.8614 140.303 26.3845 139.214 25.4309C138.158 24.4433 137.63 23.2172 137.63 21.7527C137.63 20.2542 138.158 19.0111 139.214 18.0234C140.303 17.0357 141.734 16.5419 143.505 16.5419C145.242 16.5419 146.638 17.0357 147.694 18.0234C148.784 19.0111 149.329 20.2542 149.329 21.7527C149.329 23.2172 148.784 24.4433 147.694 25.4309C146.638 26.3845 145.242 26.8614 143.505 26.8614ZM148.46 29.5179V58.1774H138.447V29.5179H148.46ZM171.532 58.1774L166.372 50.9742L162.285 58.1774H151.302L160.855 43.3112L150.893 29.5179H162.132L167.292 36.721L171.43 29.5179H182.413L172.656 44.1286L182.771 58.1774H171.532ZM212.602 43.5155C212.602 44.2989 212.551 45.0822 212.448 45.8655H193.495C193.598 47.4322 194.023 48.6072 194.773 49.3905C195.556 50.1398 196.544 50.5144 197.736 50.5144C199.404 50.5144 200.596 49.7651 201.312 48.2666H211.989C211.546 50.2419 210.677 52.0129 209.383 53.5796C208.123 55.1122 206.522 56.3212 204.581 57.2067C202.64 58.0922 200.494 58.535 198.144 58.535C195.317 58.535 192.797 57.939 190.583 56.7469C188.404 55.5549 186.684 53.852 185.424 51.6383C184.198 49.4246 183.585 46.8191 183.585 43.8221C183.585 40.825 184.198 38.2366 185.424 36.0569C186.65 33.8432 188.353 32.1403 190.532 30.9483C192.746 29.7563 195.283 29.1602 198.144 29.1602C200.971 29.1602 203.474 29.7392 205.654 30.8972C207.834 32.0551 209.537 33.724 210.763 35.9037C211.989 38.0493 212.602 40.5866 212.602 43.5155ZM202.384 41.0123C202.384 39.7862 201.976 38.8326 201.158 38.1515C200.341 37.4363 199.319 37.0787 198.093 37.0787C196.867 37.0787 195.862 37.4192 195.079 38.1004C194.296 38.7475 193.785 39.7181 193.546 41.0123H202.384ZM226.202 20.3734V58.1774H216.189V20.3734H226.202ZM258.775 43.5155C258.775 44.2989 258.724 45.0822 258.622 45.8655H239.669C239.771 47.4322 240.197 48.6072 240.946 49.3905C241.729 50.1398 242.717 50.5144 243.909 50.5144C245.578 50.5144 246.77 49.7651 247.485 48.2666H258.162C257.719 50.2419 256.851 52.0129 255.557 53.5796C254.297 55.1122 252.696 56.3212 250.755 57.2067C248.813 58.0922 246.668 58.535 244.318 58.535C241.491 58.535 238.971 57.939 236.757 56.7469C234.577 55.5549 232.857 53.852 231.597 51.6383C230.371 49.4246 229.758 46.8191 229.758 43.8221C229.758 40.825 230.371 38.2366 231.597 36.0569C232.823 33.8432 234.526 32.1403 236.706 30.9483C238.92 29.7563 241.457 29.1602 244.318 29.1602C247.144 29.1602 249.648 29.7392 251.827 30.8972C254.007 32.0551 255.71 33.724 256.936 35.9037C258.162 38.0493 258.775 40.5866 258.775 43.5155ZM248.558 41.0123C248.558 39.7862 248.149 38.8326 247.332 38.1515C246.514 37.4363 245.493 37.0787 244.267 37.0787C243.041 37.0787 242.036 37.4192 241.252 38.1004C240.469 38.7475 239.958 39.7181 239.72 41.0123H248.558ZM260.727 43.8221C260.727 40.8591 261.255 38.2707 262.311 36.0569C263.401 33.8432 264.882 32.1403 266.755 30.9483C268.629 29.7563 270.706 29.1602 272.988 29.1602C274.827 29.1602 276.462 29.5519 277.892 30.3352C279.357 31.0845 280.498 32.1233 281.315 33.4515V20.3734H291.379V58.1774H281.315V54.1926C280.532 55.5209 279.425 56.5767 277.994 57.36C276.564 58.1433 274.878 58.535 272.937 58.535C270.655 58.535 268.577 57.939 266.704 56.7469C264.865 55.5549 263.401 53.852 262.311 51.6383C261.255 49.3905 260.727 46.7851 260.727 43.8221ZM281.366 43.8221C281.366 41.983 280.855 40.5355 279.834 39.4797C278.846 38.4239 277.62 37.896 276.155 37.896C274.657 37.896 273.414 38.4239 272.426 39.4797C271.438 40.5014 270.944 41.9489 270.944 43.8221C270.944 45.6612 271.438 47.1257 272.426 48.2155C273.414 49.2713 274.657 49.7992 276.155 49.7992C277.62 49.7992 278.846 49.2713 279.834 48.2155C280.855 47.1597 281.366 45.6952 281.366 43.8221ZM323.956 43.5155C323.956 44.2989 323.905 45.0822 323.803 45.8655H304.85C304.952 47.4322 305.378 48.6072 306.127 49.3905C306.91 50.1398 307.898 50.5144 309.09 50.5144C310.759 50.5144 311.951 49.7651 312.666 48.2666H323.343C322.901 50.2419 322.032 52.0129 320.738 53.5796C319.478 55.1122 317.877 56.3212 315.936 57.2067C313.994 58.0922 311.849 58.535 309.499 58.535C306.672 58.535 304.152 57.939 301.938 56.7469C299.758 55.5549 298.038 53.852 296.778 51.6383C295.552 49.4246 294.939 46.8191 294.939 43.8221C294.939 40.825 295.552 38.2366 296.778 36.0569C298.004 33.8432 299.707 32.1403 301.887 30.9483C304.101 29.7563 306.638 29.1602 309.499 29.1602C312.326 29.1602 314.829 29.7392 317.009 30.8972C319.188 32.0551 320.891 33.724 322.117 35.9037C323.343 38.0493 323.956 40.5866 323.956 43.5155ZM313.739 41.0123C313.739 39.7862 313.33 38.8326 312.513 38.1515C311.696 37.4363 310.674 37.0787 309.448 37.0787C308.222 37.0787 307.217 37.4192 306.434 38.1004C305.65 38.7475 305.139 39.7181 304.901 41.0123H313.739ZM346.292 29.2624C349.595 29.2624 352.218 30.3693 354.159 32.583C356.1 34.7627 357.071 37.7257 357.071 41.4721V58.1774H347.058V42.8003C347.058 41.1656 346.632 39.8884 345.781 38.9689C344.93 38.0152 343.789 37.5384 342.358 37.5384C340.86 37.5384 339.685 38.0152 338.833 38.9689C337.982 39.8884 337.556 41.1656 337.556 42.8003V58.1774H327.543V29.5179H337.556V33.6048C338.442 32.3106 339.634 31.2718 341.132 30.4885C342.631 29.6711 344.351 29.2624 346.292 29.2624Z" fill="#486543"/>
</svg>
