<svg width="416" height="108" viewBox="0 0 416 108" fill="none" xmlns="http://www.w3.org/2000/svg">
<path d="M3.768 107.584C3.17067 106.731 2.57333 105.664 1.976 104.384C1.29333 103.104 0.952 101.355 0.952 99.136C0.952 97.344 1.592 94.7413 2.872 91.328C4.152 88 5.85867 84.2027 7.992 79.936C10.04 75.6693 12.3867 71.2747 15.032 66.752C17.592 62.144 20.1947 57.792 22.84 53.696C21.2187 55.3173 19.5547 56.768 17.848 58.048C17.5067 58.304 17.2507 58.432 17.08 58.432C16.824 58.432 16.696 58.2613 16.696 57.92C16.696 57.7493 16.824 57.4507 17.08 57.024C17.2507 56.5973 17.592 56.1707 18.104 55.744C19.8107 54.2933 21.8587 52.3307 24.248 49.856C26.6373 47.296 29.112 44.3947 31.672 41.152C33.6347 38.6773 35.3413 36.5013 36.792 34.624C38.2427 32.6613 39.3947 31.2533 40.248 30.4C41.1867 29.4613 42.04 28.736 42.808 28.224C43.576 27.712 44.3867 27.456 45.24 27.456C46.1787 27.456 47.2453 27.712 48.44 28.224C49.72 28.6507 50.9147 29.4613 52.024 30.656C51.0853 31.7653 49.848 33.344 48.312 35.392C46.776 37.44 45.3253 39.4027 43.96 41.28C45.9227 38.976 48.5253 36.928 51.768 35.136C55.0107 33.344 58.04 32.448 60.856 32.448C63.416 32.448 65.464 33.2587 67 34.88C68.536 36.5013 69.304 38.6347 69.304 41.28C69.304 44.1813 68.4933 47.3813 66.872 50.88C65.2507 54.2933 63.0747 57.6213 60.344 60.864C57.016 64.7893 53.304 67.9893 49.208 70.464C45.1973 72.9387 41.528 74.176 38.2 74.176C35.8107 74.176 33.9333 73.4933 32.568 72.128C31.2027 70.7627 30.52 68.7573 30.52 66.112C30.52 63.3813 31.1173 60.4373 32.312 57.28C30.008 60.1813 27.5333 63.5093 24.888 67.264C22.328 71.0187 19.8107 74.8587 17.336 78.784C14.8613 82.7093 12.6427 86.464 10.68 90.048C8.632 93.632 7.01067 96.7893 5.816 99.52C4.62133 102.251 4.024 104.299 4.024 105.664C4.024 106.347 4.10933 106.773 4.28 106.944C4.536 107.285 4.57867 107.499 4.408 107.584C4.152 107.755 3.93867 107.755 3.768 107.584ZM37.56 72.768C40.0347 72.768 42.4667 72 44.856 70.464C47.3307 68.8427 49.5493 66.752 51.512 64.192C53.4747 61.632 55.0533 58.9013 56.248 56C57.4427 53.0987 58.04 50.368 58.04 47.808C58.04 45.504 57.4853 43.712 56.376 42.432C55.352 41.152 53.9013 40.512 52.024 40.512C49.8053 40.512 47.288 41.4933 44.472 43.456C41.656 45.3333 39.096 48.064 36.792 51.648C35.0853 54.1227 33.848 56.64 33.08 59.2C32.3973 61.6747 32.056 63.8933 32.056 65.856C32.056 68.3307 32.568 70.1227 33.592 71.232C34.616 72.256 35.9387 72.768 37.56 72.768ZM98.919 32.832C97.7243 32.832 96.8283 32.448 96.231 31.68C95.6337 30.912 95.335 30.1013 95.335 29.248C95.335 27.5413 96.1457 25.8773 97.767 24.256C99.3883 22.5493 101.095 21.696 102.887 21.696C104.082 21.696 104.978 22.08 105.575 22.848C106.172 23.616 106.471 24.4267 106.471 25.28C106.471 27.072 105.66 28.7787 104.039 30.4C102.503 32.0213 100.796 32.832 98.919 32.832ZM79.335 72.128C75.8363 72.128 73.447 71.4027 72.167 69.952C70.9723 68.416 70.375 66.7093 70.375 64.832C70.375 63.296 70.631 61.8453 71.143 60.48C71.655 59.0293 72.0817 58.0053 72.423 57.408C72.935 56.5547 73.6177 55.5733 74.471 54.464C75.4097 53.3547 76.4337 52.16 77.543 50.88C75.8363 52.3307 74.215 53.7387 72.679 55.104C71.2283 56.4693 70.0337 57.4933 69.095 58.176C68.839 58.432 68.583 58.56 68.327 58.56C67.9857 58.56 67.815 58.3467 67.815 57.92C67.815 57.2373 68.2843 56.5547 69.223 55.872C71.4417 53.9947 73.575 51.9467 75.623 49.728C77.7563 47.5093 79.7617 45.4613 81.639 43.584C83.5163 41.6213 85.1803 40.256 86.631 39.488C88.167 38.6347 89.4043 38.08 90.343 37.824C91.2817 37.568 92.0497 37.44 92.647 37.44C93.5857 37.44 94.2683 37.6107 94.695 37.952C95.1217 38.208 95.207 38.5067 94.951 38.848C93.5003 40.2987 92.0497 42.176 90.599 44.48C89.2337 46.6987 87.9537 49.0453 86.759 51.52C85.5643 53.9947 84.583 56.3413 83.815 58.56C83.1323 60.7787 82.791 62.656 82.791 64.192C82.791 66.3253 83.6443 67.392 85.351 67.392C86.9723 67.392 89.063 66.6667 91.623 65.216C94.2683 63.68 96.999 61.76 99.815 59.456C102.716 57.152 105.404 54.8907 107.879 52.672C108.22 52.3307 108.519 52.16 108.775 52.16C109.202 52.16 109.415 52.3733 109.415 52.8C109.5 53.2267 109.415 53.5253 109.159 53.696C106.343 56.3413 103.143 59.1147 99.559 62.016C96.0603 64.832 92.519 67.2213 88.935 69.184C85.4363 71.1467 82.2363 72.128 79.335 72.128ZM90.31 84.288C89.9687 84.288 89.7553 84.16 89.67 83.904C89.4993 83.648 89.5847 83.3493 89.926 83.008C92.5713 79.5093 96.0273 75.2427 100.294 70.208C104.475 65.1733 109.126 60.096 114.246 54.976C112.966 51.648 112.326 48.32 112.326 44.992C112.326 41.408 113.009 38.6773 114.374 36.8C114.801 36.288 115.739 35.6053 117.19 34.752C118.641 33.8987 120.006 33.1733 121.286 32.576C122.481 32.064 123.377 31.808 123.974 31.808C124.486 31.808 124.529 32.1493 124.102 32.832C122.737 35.0507 122.054 38.1227 122.054 42.048C122.054 43.7547 122.182 45.504 122.438 47.296C126.619 43.5413 130.886 40.1707 135.238 37.184C139.59 34.1973 143.857 31.8507 148.038 30.144C152.219 28.352 156.187 27.5413 159.942 27.712C160.113 27.712 160.155 27.7973 160.07 27.968C160.07 28.1387 159.899 28.224 159.558 28.224C156.486 28.224 152.603 29.5467 147.91 32.192C143.217 34.8373 138.267 38.208 133.062 42.304C131.441 43.6693 129.777 45.0773 128.07 46.528C126.449 47.9787 124.785 49.4293 123.078 50.88C123.761 53.952 124.657 56.896 125.766 59.712C126.961 62.528 128.241 64.832 129.606 66.624C130.545 67.7333 131.526 68.6293 132.55 69.312C133.659 69.9947 134.897 70.336 136.262 70.336C137.883 70.336 139.078 69.824 139.846 68.8C140.017 68.6293 140.187 68.6293 140.358 68.8C140.529 68.8853 140.529 69.0133 140.358 69.184C139.761 70.0373 138.95 70.6773 137.926 71.104C136.987 71.5307 136.049 71.744 135.11 71.744C131.782 71.744 128.838 71.0613 126.278 69.696C123.803 68.2453 121.67 66.4533 119.878 64.32C118.171 62.1013 116.763 59.9253 115.654 57.792C110.363 62.8267 105.627 67.648 101.446 72.256C97.1793 76.9493 94.0647 80.576 92.102 83.136C91.59 83.904 90.9927 84.288 90.31 84.288ZM154.541 73.28C150.786 73.28 147.629 72.384 145.069 70.592C142.594 68.7147 141.357 66.0267 141.357 62.528C141.357 58.7733 142.253 55.2747 144.045 52.032C145.837 48.7893 148.226 45.9733 151.213 43.584C154.2 41.1093 157.442 39.1893 160.941 37.824C164.525 36.4587 168.066 35.776 171.565 35.776C175.064 35.776 177.666 36.416 179.373 37.696C181.08 38.8907 181.933 40.384 181.933 42.176C181.933 43.8827 181.122 45.7173 179.501 47.68C177.965 49.5573 175.704 51.2213 172.717 52.672C170.84 53.5253 168.664 54.2933 166.189 54.976C163.8 55.5733 161.709 55.872 159.917 55.872C158.552 55.872 157.869 55.6587 157.869 55.232C157.869 54.8907 158.466 54.72 159.661 54.72C160.77 54.72 162.477 54.4213 164.781 53.824C167.17 53.1413 169.474 52.2453 171.693 51.136C174.168 49.7707 175.917 48.4053 176.941 47.04C177.965 45.6747 178.477 44.4373 178.477 43.328C178.477 42.304 178.05 41.4507 177.197 40.768C176.429 40.0853 175.32 39.744 173.869 39.744C172.504 39.744 170.968 40.128 169.261 40.896C166.786 42.0053 164.226 43.84 161.581 46.4C159.021 48.8747 156.888 51.6053 155.181 54.592C153.474 57.5787 152.621 60.4373 152.621 63.168C152.621 65.0453 153.133 66.624 154.157 67.904C155.266 69.184 156.888 69.824 159.021 69.824C161.24 69.824 163.8 69.1413 166.701 67.776C169.602 66.3253 172.546 64.576 175.533 62.528C178.52 60.3947 181.293 58.2613 183.853 56.128C186.413 53.9947 188.461 52.2027 189.997 50.752C190.509 50.24 190.893 49.984 191.149 49.984C191.405 49.984 191.533 50.1973 191.533 50.624C191.533 51.2213 191.277 51.7333 190.765 52.16C187.522 55.1467 183.981 58.2613 180.141 61.504C176.386 64.7467 172.333 67.52 167.981 69.824C163.714 72.0427 159.234 73.1947 154.541 73.28ZM197.401 72.64C193.988 72.64 191.598 71.8293 190.233 70.208C188.868 68.5013 188.185 66.5387 188.185 64.32C188.185 62.1867 188.569 59.9253 189.337 57.536C190.19 55.1467 191.129 52.8853 192.153 50.752C191.044 51.9467 189.977 53.056 188.953 54.08C187.929 55.0187 187.076 55.7867 186.393 56.384C186.052 56.64 185.71 56.768 185.369 56.768C184.942 56.768 184.729 56.5547 184.729 56.128C184.729 55.7013 184.985 55.3173 185.497 54.976C187.289 53.44 189.38 51.3493 191.769 48.704C194.158 46.0587 196.377 43.3707 198.425 40.64C200.132 38.4213 202.18 35.648 204.569 32.32C206.958 28.992 209.39 25.4933 211.865 21.824C214.34 18.0693 216.473 14.656 218.265 11.584C218.521 11.072 218.777 10.432 219.033 9.664C219.374 8.896 219.545 8.21333 219.545 7.616C219.545 6.76266 219.204 6.336 218.521 6.336C218.35 6.336 217.838 6.50667 216.985 6.848C216.217 7.18933 215.449 7.53067 214.681 7.87199C213.913 8.21333 213.444 8.384 213.273 8.384C212.59 8.384 212.633 8 213.401 7.23199C214.766 6.208 216.473 5.22666 218.521 4.28799C220.654 3.264 222.83 2.41066 225.049 1.728C227.268 1.04533 229.145 0.703995 230.681 0.703995C234.265 0.703995 236.057 1.856 236.057 4.16C236.057 5.35466 235.502 6.93333 234.393 8.896C233.454 10.432 232.089 12.2667 230.297 14.4C228.505 16.448 226.5 18.6667 224.281 21.056C222.148 23.36 220.057 25.664 218.009 27.968C215.961 30.1867 214.254 32.1493 212.889 33.856C212.548 34.2827 211.694 35.392 210.329 37.184C209.049 38.976 207.556 41.152 205.849 43.712C204.228 46.1867 202.564 48.832 200.857 51.648C199.236 54.3787 197.87 57.024 196.761 59.584C195.737 62.0587 195.225 64.1493 195.225 65.856C195.225 68.16 196.334 69.312 198.553 69.312C200.004 69.312 201.838 68.8853 204.057 68.032C206.19 67.264 208.409 66.112 210.713 64.576C213.102 62.9547 215.406 61.248 217.625 59.456C219.929 57.664 221.934 55.9573 223.641 54.336C225.433 52.7147 226.756 51.4773 227.609 50.624C228.121 50.112 228.548 49.856 228.889 49.856C229.23 49.856 229.401 50.0693 229.401 50.496C229.401 50.9227 229.188 51.3493 228.761 51.776C227.396 53.2267 225.518 55.104 223.129 57.408C220.825 59.712 218.222 62.0587 215.321 64.448C212.505 66.752 209.561 68.7147 206.489 70.336C203.417 71.872 200.388 72.64 197.401 72.64ZM235.666 73.28C231.911 73.28 228.754 72.384 226.194 70.592C223.719 68.7147 222.482 66.0267 222.482 62.528C222.482 58.7733 223.378 55.2747 225.17 52.032C226.962 48.7893 229.351 45.9733 232.338 43.584C235.325 41.1093 238.567 39.1893 242.066 37.824C245.65 36.4587 249.191 35.776 252.69 35.776C256.189 35.776 258.791 36.416 260.498 37.696C262.205 38.8907 263.058 40.384 263.058 42.176C263.058 43.8827 262.247 45.7173 260.626 47.68C259.09 49.5573 256.829 51.2213 253.842 52.672C251.965 53.5253 249.789 54.2933 247.314 54.976C244.925 55.5733 242.834 55.872 241.042 55.872C239.677 55.872 238.994 55.6587 238.994 55.232C238.994 54.8907 239.591 54.72 240.786 54.72C241.895 54.72 243.602 54.4213 245.906 53.824C248.295 53.1413 250.599 52.2453 252.818 51.136C255.293 49.7707 257.042 48.4053 258.066 47.04C259.09 45.6747 259.602 44.4373 259.602 43.328C259.602 42.304 259.175 41.4507 258.322 40.768C257.554 40.0853 256.445 39.744 254.994 39.744C253.629 39.744 252.093 40.128 250.386 40.896C247.911 42.0053 245.351 43.84 242.706 46.4C240.146 48.8747 238.013 51.6053 236.306 54.592C234.599 57.5787 233.746 60.4373 233.746 63.168C233.746 65.0453 234.258 66.624 235.282 67.904C236.391 69.184 238.013 69.824 240.146 69.824C242.365 69.824 244.925 69.1413 247.826 67.776C250.727 66.3253 253.671 64.576 256.658 62.528C259.645 60.3947 262.418 58.2613 264.978 56.128C267.538 53.9947 269.586 52.2027 271.122 50.752C271.634 50.24 272.018 49.984 272.274 49.984C272.53 49.984 272.658 50.1973 272.658 50.624C272.658 51.2213 272.402 51.7333 271.89 52.16C268.647 55.1467 265.106 58.2613 261.266 61.504C257.511 64.7467 253.458 67.52 249.106 69.824C244.839 72.0427 240.359 73.1947 235.666 73.28ZM302.846 83.264C301.481 82.0693 300.457 80.5333 299.774 78.656C299.177 76.864 298.878 74.816 298.878 72.512C298.878 70.3787 299.091 68.1173 299.518 65.728C300.03 63.3387 300.67 60.8213 301.438 58.176C299.817 60.224 297.982 62.3147 295.934 64.448C293.971 66.5813 292.094 68.416 290.302 69.952C286.718 72.8533 282.835 74.304 278.654 74.304C275.497 74.304 272.809 73.3227 270.59 71.36C268.371 69.312 267.262 66.1547 267.262 61.888C267.262 60.7787 267.347 59.712 267.518 58.688C267.774 57.664 268.073 56.64 268.414 55.616C267.902 56.0427 267.39 56.4693 266.878 56.896C266.451 57.3227 266.025 57.7067 265.598 58.048C265.257 58.304 264.915 58.432 264.574 58.432C264.147 58.432 263.934 58.2187 263.934 57.792C263.934 57.28 264.361 56.6827 265.214 56C266.323 55.0613 267.561 53.7813 268.926 52.16C270.377 50.5387 271.955 48.7893 273.662 46.912C276.649 43.584 280.275 40.896 284.542 38.848C288.894 36.8 293.161 35.776 297.342 35.776C300.926 35.776 303.529 36.416 305.15 37.696C306.857 38.976 307.71 40.512 307.71 42.304C309.843 37.7813 312.062 33.472 314.366 29.376C316.755 25.1947 318.974 21.5253 321.022 18.368C323.155 15.2107 324.905 12.864 326.27 11.328C327.209 10.2187 328.361 9.408 329.726 8.896C331.177 8.384 332.627 8.128 334.078 8.128C335.529 8.128 336.937 8.34133 338.302 8.768C339.667 9.19466 340.862 9.87733 341.886 10.816C341.033 11.328 339.667 12.5653 337.79 14.528C335.998 16.4053 333.907 18.752 331.518 21.568C329.214 24.384 326.782 27.4133 324.222 30.656C321.747 33.8987 319.401 37.1413 317.182 40.384C314.537 44.224 312.019 48.3627 309.63 52.8C307.326 57.2373 305.449 61.5467 303.998 65.728C302.547 69.824 301.822 73.4507 301.822 76.608C301.822 79.168 302.377 81.1307 303.486 82.496C303.742 82.8373 303.742 83.0507 303.486 83.136C303.23 83.3067 303.017 83.3493 302.846 83.264ZM282.622 69.952C284.158 69.952 286.206 69.184 288.766 67.648C291.326 66.0267 294.483 63.296 298.238 59.456C299.433 58.2613 300.371 57.2373 301.054 56.384C301.822 55.4453 302.462 54.5493 302.974 53.696C303.401 52.5013 303.827 51.3493 304.254 50.24C304.681 49.1307 305.15 48.0213 305.662 46.912C305.15 47.2533 304.766 47.424 304.51 47.424C303.827 47.424 303.486 47.04 303.486 46.272C303.486 45.9307 303.614 45.504 303.87 44.992C304.723 43.5413 305.15 42.2613 305.15 41.152C305.15 39.36 304.126 38.464 302.078 38.464C300.969 38.464 299.475 38.8053 297.598 39.488C295.465 40.3413 293.246 41.664 290.942 43.456C288.723 45.1627 286.633 47.2107 284.67 49.6C282.793 51.904 281.257 54.2933 280.062 56.768C278.953 59.2427 278.398 61.5893 278.398 63.808C278.398 65.4293 278.697 66.88 279.294 68.16C279.977 69.3547 281.086 69.952 282.622 69.952ZM331.166 73.28C327.411 73.28 324.254 72.384 321.694 70.592C319.219 68.7147 317.982 66.0267 317.982 62.528C317.982 58.7733 318.878 55.2747 320.67 52.032C322.462 48.7893 324.851 45.9733 327.838 43.584C330.825 41.1093 334.067 39.1893 337.566 37.824C341.15 36.4587 344.691 35.776 348.19 35.776C351.689 35.776 354.291 36.416 355.998 37.696C357.705 38.8907 358.558 40.384 358.558 42.176C358.558 43.8827 357.747 45.7173 356.126 47.68C354.59 49.5573 352.329 51.2213 349.342 52.672C347.465 53.5253 345.289 54.2933 342.814 54.976C340.425 55.5733 338.334 55.872 336.542 55.872C335.177 55.872 334.494 55.6587 334.494 55.232C334.494 54.8907 335.091 54.72 336.286 54.72C337.395 54.72 339.102 54.4213 341.406 53.824C343.795 53.1413 346.099 52.2453 348.318 51.136C350.793 49.7707 352.542 48.4053 353.566 47.04C354.59 45.6747 355.102 44.4373 355.102 43.328C355.102 42.304 354.675 41.4507 353.822 40.768C353.054 40.0853 351.945 39.744 350.494 39.744C349.129 39.744 347.593 40.128 345.886 40.896C343.411 42.0053 340.851 43.84 338.206 46.4C335.646 48.8747 333.513 51.6053 331.806 54.592C330.099 57.5787 329.246 60.4373 329.246 63.168C329.246 65.0453 329.758 66.624 330.782 67.904C331.891 69.184 333.513 69.824 335.646 69.824C337.865 69.824 340.425 69.1413 343.326 67.776C346.227 66.3253 349.171 64.576 352.158 62.528C355.145 60.3947 357.918 58.2613 360.478 56.128C363.038 53.9947 365.086 52.2027 366.622 50.752C367.134 50.24 367.518 49.984 367.774 49.984C368.03 49.984 368.158 50.1973 368.158 50.624C368.158 51.2213 367.902 51.7333 367.39 52.16C364.147 55.1467 360.606 58.2613 356.766 61.504C353.011 64.7467 348.958 67.52 344.606 69.824C340.339 72.0427 335.859 73.1947 331.166 73.28ZM361.61 72.64C360.757 72.64 359.733 72.4267 358.538 72C357.343 71.6587 356.149 70.976 354.954 69.952C355.893 68.672 357.258 66.9653 359.05 64.832C360.757 62.6133 362.591 60.1813 364.554 57.536C366.517 54.8907 368.351 52.2453 370.058 49.6C368.693 50.9653 367.199 52.416 365.578 53.952C363.957 55.488 362.335 56.896 360.714 58.176C360.373 58.5173 359.989 58.688 359.562 58.688C359.221 58.688 359.05 58.5173 359.05 58.176C359.05 57.7493 359.391 57.2373 360.074 56.64C362.463 54.5067 365.109 52.0747 368.01 49.344C370.997 46.528 373.173 43.6693 374.538 40.768C374.965 39.744 375.178 38.8053 375.178 37.952C375.178 36.8427 374.965 36.16 374.538 35.904C374.197 35.648 374.026 35.3067 374.026 34.88C374.026 34.112 374.41 33.728 375.178 33.728C375.605 33.728 375.946 33.8133 376.202 33.984C377.141 34.4107 378.037 35.2213 378.89 36.416C379.743 37.6107 380.17 39.4027 380.17 41.792C380.17 43.1573 379.999 44.736 379.658 46.528C379.317 48.2347 378.719 50.1973 377.866 52.416C379.146 50.7093 380.426 49.0453 381.706 47.424C383.071 45.8027 384.309 44.352 385.418 43.072C387.722 40.4267 390.026 38.5493 392.33 37.44C394.719 36.2453 396.853 35.648 398.73 35.648C400.949 35.648 402.741 36.288 404.106 37.568C405.471 38.848 406.154 40.512 406.154 42.56C406.154 44.1813 405.727 45.8453 404.874 47.552C404.618 48.2347 404.021 49.3013 403.082 50.752C402.143 52.1173 401.119 53.6107 400.01 55.232C398.901 56.8533 397.877 58.304 396.938 59.584C395.829 60.9493 395.061 62.144 394.634 63.168C394.207 64.1067 393.994 64.8747 393.994 65.472C393.994 66.3253 394.463 66.752 395.402 66.752C396.597 66.752 398.261 66.112 400.394 64.832C401.674 64.064 403.125 63.04 404.746 61.76C406.453 60.3947 408.117 59.0293 409.738 57.664C411.445 56.2133 412.81 55.0187 413.834 54.08C414.175 53.7387 414.474 53.568 414.73 53.568C415.071 53.568 415.242 53.7813 415.242 54.208C415.242 54.72 415.029 55.1893 414.602 55.616C412.042 58.0053 409.055 60.608 405.642 63.424C402.314 66.24 399.029 68.416 395.786 69.952C393.141 71.232 390.709 71.872 388.49 71.872C386.613 71.872 385.119 71.4027 384.01 70.464C382.901 69.44 382.346 67.9893 382.346 66.112C382.346 64.7467 382.687 63.1253 383.37 61.248C384.223 58.944 385.418 56.64 386.954 54.336C388.575 52.032 390.239 49.856 391.946 47.808C393.738 45.6747 395.274 43.8827 396.554 42.432C397.663 41.2373 398.218 40.2133 398.218 39.36C398.218 38.592 397.706 38.208 396.682 38.208C395.658 38.208 394.122 38.8053 392.074 40C390.111 41.1093 387.893 42.944 385.418 45.504C381.919 49.1733 378.847 53.1413 376.202 57.408C373.557 61.6747 370.527 65.6853 367.114 69.44C365.237 71.5733 363.402 72.64 361.61 72.64Z" fill="#235000"/>
</svg>
